<svg xmlns="http://www.w3.org/2000/svg" version="1.0" preserveAspectRatio="xMidYMid meet" viewBox="576.17 556.5 2347.5 327.33">
 <g fill="#ffffff">
  <path d="M2842.5 827.5 c-14.5 -3 -26.2 -11.1 -29.4 -20.4 -1.3 -4.1 -1.4 -12.1 -0.2 -15.4 1.6 -4.3 7.2 -9.7 12.8 -12.6 l5.5 -2.7 -4 -2.7 c-14.7 -9.7 -14.5 -29.4 0.3 -37.8 l5.3 -3 -4.9 -4.6 c-2.7 -2.5 -6.1 -7.1 -7.6 -10.2 -2.5 -5 -2.8 -6.7 -2.8 -16.1 0 -9.3 0.3 -11.2 2.7 -16.2 4.8 -10.2 14.9 -18 27.9 -21.4 9 -2.4 24.5 -2.2 32.6 0.4 l6.3 2 2.3 -5.2 c4.9 -10.6 13.1 -16.5 24.2 -17.4 7 -0.5 6.3 -1.1 8.5 7.8 0.6 2.5 1.3 5.2 1.6 6.1 0.4 1.4 -0.7 1.7 -6.4 2.1 -8 0.6 -16.4 4.6 -19 9 -1.6 2.6 -1.5 2.8 2.9 7.5 7.4 7.9 9.4 13.1 9.4 24.3 0 8.8 -0.3 10.1 -3.3 16.2 -5.3 10.9 -16.2 18.8 -30 21.7 -6.2 1.3 -20.8 1.4 -27.2 0.1 -5.4 -1 -11.9 1.3 -14.5 5.4 -2.5 3.8 -3 9.7 -1.1 13.4 3.4 6.5 4 6.6 35.6 7.3 25.6 0.5 29 0.7 33.6 2.6 11.7 4.6 17.7 13 17.7 24.6 0 15.4 -11 27 -31.8 33.7 -5.9 1.9 -9.7 2.3 -23.5 2.6 -11.6 0.2 -18.6 -0.1 -23.5 -1.1z m44.3 -16.3 c11.5 -3.7 17.2 -9.2 17.2 -16.7 0 -5.3 -2.3 -8.9 -7.2 -11.1 -3.8 -1.7 -6.7 -1.9 -30.3 -1.9 -24.8 0 -26.2 0.1 -30.1 2.2 -5.2 2.8 -7.4 6.1 -7.4 11.3 0 9.7 7.5 15.5 23 18 8.9 1.4 27.6 0.5 34.8 -1.8z m-11.9 -87.8 c6.7 -2 14.4 -9.2 16 -14.9 2.3 -8.6 0.7 -15.8 -5 -22 -5.6 -6.1 -12.5 -8.8 -22.1 -8.8 -6.9 -0.1 -8.5 0.3 -14.4 3.4 -8.8 4.5 -12.4 9.3 -13.1 17.8 -0.7 7.7 1.3 13.3 6.5 18.4 7.3 7.2 20.3 9.6 32.1 6.1z"/>
  <path d="M1133.9 780.5 c-17.6 -3.6 -33.8 -13.7 -42.7 -26.6 l-3.1 -4.6 7 -5.7 c3.9 -3.1 7.6 -5.9 8.2 -6.2 0.7 -0.2 2.3 1.5 3.6 3.7 3.3 5.8 9.4 12.2 15.2 16 18.1 11.6 53.1 9.9 64.3 -3.3 5.6 -6.5 7 -14.2 3.7 -21.4 -4 -8.9 -13.9 -13.6 -38.5 -18.4 -40.6 -8 -54.4 -17.5 -57.2 -39.6 -1.4 -11.4 4 -24.9 13.8 -33.9 10.9 -10.1 23.8 -14.5 42.9 -14.5 20.7 0 35.3 5.4 47.4 17.5 3.9 3.8 7.9 8.7 8.9 10.7 l2 3.7 -2.5 2 c-6 5.1 -13 10.3 -13.3 10 -0.1 -0.2 -1.9 -3.1 -3.9 -6.4 -9.4 -15.7 -21.3 -21.4 -42.5 -20.3 -11.8 0.7 -19.7 3.4 -25.8 9 -6.1 5.6 -7.7 9.6 -7.2 17.9 0.8 13.9 8.8 18.9 41.4 25.4 27 5.5 38.4 10.2 46.7 19.5 6.1 6.8 8.2 13.1 8.2 24.5 0 8.2 -0.3 9.7 -3.2 15.6 -5.8 11.7 -17.1 20.2 -32.8 24.5 -8.2 2.2 -31.8 2.8 -40.6 0.9z"/>
  <path d="M1247.3 780 c-4.2 -2.5 -6.5 -7.2 -6.5 -13.1 0.1 -6.3 2.6 -10.4 7.7 -12.9 7.1 -3.4 13.8 -2 18.8 3.9 2.2 2.7 2.7 4.2 2.7 8.9 0 6.9 -2.3 11.2 -7.3 13.5 -4.7 2.3 -11.4 2.2 -15.4 -0.3z"/>
  <path d="M1556.3 780 c-4.9 -2.9 -6.8 -6.5 -6.8 -12.9 0 -7 2.7 -11.2 8.7 -13.6 5.1 -2 11.5 -1.3 15.2 1.6 8.1 6.4 7.2 20.4 -1.5 25.1 -4.5 2.4 -11.5 2.3 -15.6 -0.2z"/>
  <path d="M1729.9 780.6 c-14.7 -3.1 -27 -9.8 -36.6 -19.9 -8.4 -9 -9.4 -11 -6.2 -13.7 5.9 -4.9 13 -10.2 13.2 -9.9 0.2 0.2 1.8 2.7 3.6 5.6 8.2 13.1 22 20.7 39.9 21.9 20.6 1.5 37.1 -4.8 42.3 -16.1 3.5 -7.5 2.2 -15.4 -3.4 -21.3 -5.8 -6.1 -13.1 -8.8 -36.8 -13.7 -32.2 -6.5 -45.1 -13 -51.6 -25.8 -10 -19.8 -0.6 -44 21.5 -55.1 9.8 -5 17.5 -6.6 31.2 -6.6 21.5 0 35.3 5.1 47.5 17.4 3.9 3.9 8 8.7 9.2 10.8 l2.1 3.6 -7.5 6.1 c-4.1 3.4 -7.8 6.1 -8.2 6.1 -0.3 0 -1.9 -2.5 -3.5 -5.6 -8.3 -15.7 -21.7 -22.3 -43.4 -21.2 -20.7 1.1 -33.1 10.7 -33.2 25.6 0 10 5.5 16.2 18.8 21.2 2.9 1.1 13.1 3.6 22.7 5.5 40.7 8.2 53.9 17.9 55.3 40.6 1.2 20.8 -10.3 35.3 -34.3 42.9 -9 2.8 -32.4 3.7 -42.6 1.6z"/>
  <path d="M1879.5 781.4 c-22.8 -4.8 -36.7 -18 -42.1 -40 -2.4 -9.4 -2.4 -29.5 -0.1 -38.4 5.1 -19.5 17.7 -33.1 35.5 -38.2 9.6 -2.8 26.4 -2.8 35.2 0 7.9 2.6 14.3 6.5 19.9 12.3 4.1 4.2 10.1 13.3 10.1 15.4 0 0.8 -8.6 5.2 -16.1 8.3 -0.4 0.2 -1.6 -1.7 -2.7 -4.1 -2.6 -5.8 -8.5 -12.3 -13.6 -15 -6.3 -3.2 -21.2 -3.6 -28.7 -0.8 -14.8 5.6 -22.9 20 -22.9 40.8 0 15.7 3.5 26.4 11.1 34.3 10.6 10.9 32.2 13.3 45.3 5 4.9 -3.1 10.3 -10.5 11.3 -15.3 0.7 -3.4 1.9 -3.3 12 0.5 l6.2 2.3 -3.2 6.5 c-3.9 7.9 -13.3 17.8 -20.4 21.4 -2.9 1.4 -8.1 3.3 -11.5 4.1 -5.8 1.3 -20.5 1.8 -25.3 0.9z"/>
  <path d="M1989.4 780.6 c-10.3 -2.5 -18.7 -8.5 -22.6 -16.1 -1.4 -2.5 -2.3 -6.7 -2.6 -11.3 -0.4 -6.6 -0.2 -7.8 2.7 -13.7 3.5 -7.1 8.3 -11.7 16.9 -16.3 7.6 -4.1 16.6 -6.4 36.8 -9.8 9.3 -1.5 17.5 -3.2 18.3 -3.8 1.6 -1.3 0.7 -11.1 -1.5 -16.6 -2.3 -5.3 -8.1 -10.7 -13.7 -12.6 -7.5 -2.5 -20.6 -1.6 -27.4 1.9 -6.3 3.2 -11.5 8.3 -14.3 13.7 -1.1 2.2 -2.3 4 -2.6 4 -0.5 0 -10.9 -7.4 -12.8 -9.1 -1.4 -1.2 4.4 -10.6 9.4 -15.3 9.4 -8.8 21.2 -12.9 36.5 -12.9 11.3 0.1 17.4 1.3 24.9 4.8 7.9 3.7 13.1 8.8 16.8 16.3 l3.3 6.7 0.5 36.2 c0.6 42.4 -0.2 39.7 11.1 39.5 l7.2 -0.2 -0.7 3.8 c-0.3 2 -0.6 5.1 -0.6 6.9 0 2.8 -0.4 3.3 -3.7 4.2 -6 1.7 -16.3 1.3 -20.9 -0.8 -3.7 -1.7 -8.4 -6.2 -8.4 -8.2 0 -0.4 -0.4 -1.9 -1 -3.4 l-1 -2.5 -3.9 3.9 c-10.1 10.1 -30.2 14.7 -46.7 10.7z m30.6 -17 c6.9 -2.5 14.4 -8.1 17 -12.7 1.8 -3.3 2.4 -6.2 2.8 -13.5 0.2 -5.1 0.2 -9.9 -0.1 -10.7 -0.4 -1.2 -3.4 -0.8 -17.9 1.9 -20.1 3.9 -27.1 6.3 -32.7 11.1 -9.6 8.1 -7.3 20.5 4.5 24.9 5 1.8 20.1 1.3 26.4 -1z"/>
  <path d="M2296.4 780.5 c-14.6 -3.2 -27.3 -13.2 -33.6 -26.5 -5.2 -10.9 -6.3 -16.6 -6.3 -32 0.1 -20.5 4 -32.1 14.7 -43.6 10.1 -10.8 22.7 -15.7 40.3 -15.7 28.2 0 46.9 14 53.5 39.9 2.4 9.5 2.7 27.6 0.5 37.9 -3 14.1 -12.1 27.3 -23.7 34.2 -10.9 6.6 -30.3 9.1 -45.4 5.8z m31.8 -17.8 c13.3 -6.5 20.8 -20.9 20.8 -40.2 0 -14.7 -4.5 -27.2 -12.6 -35 -12.9 -12.6 -38.3 -12 -50.5 1.2 -7 7.5 -9.4 13.3 -10.8 25.7 -2.3 20.1 3.5 37.2 15.6 45.9 5.9 4.2 12.2 5.7 22.9 5.4 7.4 -0.2 10 -0.8 14.6 -3z"/>
  <path d="M2418.6 780.5 c-7.3 -2.6 -12.2 -7.7 -14.8 -15.4 -0.9 -2.7 -1.3 -22.7 -1.6 -78.3 l-0.3 -74.8 9.5 0 9.6 0 0.2 73.6 0.3 73.6 2.9 2.5 c2.8 2.3 3.4 2.5 11.5 2 4.7 -0.3 9.8 -0.8 11.4 -1.2 2.1 -0.6 2.6 -0.4 2.3 0.6 -0.3 0.8 -1 4.7 -1.6 8.6 l-1.2 7.3 -5.1 1.5 c-6.3 1.9 -17.9 1.9 -23.1 0z"/>
  <path d="M2504.8 780.4 c-18.3 -4.4 -32 -19.6 -36.4 -40.4 -2.3 -10.7 -1.5 -31.9 1.6 -41.5 5 -16.1 16 -28 30.3 -33.1 17.9 -6.3 39.1 -2.1 51.4 10.2 l5.3 5.3 0 -34.5 0 -34.4 9.5 0 9.5 0 0 84 0 84 -7.9 0 c-9.2 0 -9 0.2 -9.1 -12 l-0.1 -7.5 -2.7 3.5 c-6.6 8.6 -14.6 13.9 -24.7 16.6 -6.3 1.7 -19.3 1.6 -26.7 -0.2z m27.2 -16 c10.5 -3.1 17.9 -10.2 22.1 -21.4 2.8 -6.9 3.8 -26.4 1.9 -34.9 -2.6 -11.8 -9.1 -20.9 -18.5 -25.9 -4.5 -2.4 -6 -2.7 -16 -2.7 -9.6 0 -11.6 0.3 -15.9 2.4 -11.1 5.5 -17.9 16.4 -19.9 32 -3.1 25 6.6 45 24.6 50.7 5.8 1.8 15.3 1.7 21.7 -0.2z"/>
  <path d="M1389 704 l0 -76 11.8 0 11.7 0.1 32.1 51.7 c17.7 28.4 35.4 57.8 39.4 65.2 4 7.4 7.3 13.6 7.4 13.7 0 0.1 -0.1 -29.3 -0.3 -65.3 l-0.3 -65.4 9.1 0 9.1 0 0 76 0 76.1 -11.7 -0.3 -11.7 -0.3 -31.8 -51 c-17.5 -28 -35.2 -57.4 -39.4 -65.2 -4.2 -7.9 -7.6 -14.3 -7.7 -14.3 -0.1 0 -0.1 29.5 0.1 65.5 l0.4 65.5 -9.1 0 -9.1 0 0 -76z"/>
  <path d="M2110 730.5 l0 -49.4 -11.2 -0.3 -11.3 -0.3 -0.3 -7.7 -0.3 -7.8 11.4 0 11.4 0 0.6 -13.7 c0.6 -16.7 2.3 -22.5 8.4 -29.3 6.9 -7.6 13.3 -10.3 26.3 -10.8 10.7 -0.4 15.9 0.4 20.7 3.4 l2.2 1.4 -2.5 7.5 -2.6 7.5 -2.6 -1.4 c-6.7 -3.3 -18.6 -2.6 -24.4 1.5 -5.2 3.7 -6.8 8.8 -6.8 22.1 l0 11.8 27.9 -0.1 27.9 -0.1 0.4 -15.1 c0.3 -12.9 0.7 -15.9 2.5 -19.8 3.1 -6.9 8.5 -12.2 15.5 -15.5 5.8 -2.7 7.2 -2.9 18.3 -2.9 9.7 0 12.9 0.4 16.3 1.9 2.3 1 4.2 2.2 4.2 2.6 0 0.6 -4.1 13.3 -4.5 13.8 -0.1 0.1 -2.9 -0.4 -6.1 -1.3 -11.2 -2.9 -21.8 0.4 -25.8 8 -1.7 3.3 -2.2 6.2 -2.5 16.2 l-0.3 12.3 19.6 0 19.7 0 -0.3 7.8 -0.3 7.7 -19.2 0.3 -19.3 0.2 0 49.5 0 49.5 -9 0 -9 0 0 -49.5 0 -49.5 -28 0 -28 0 0 49.5 0 49.5 -9.5 0 -9.5 0 0 -49.5z"/>
  <path d="M2619 722.5 l0 -57.5 9 0 9 0 0 57.5 0 57.5 -9 0 -9 0 0 -57.5z"/>
  <path d="M2680 722.5 l0 -57.5 7.9 0 7.8 0 0.7 5.3 c0.3 2.8 0.6 6.7 0.6 8.5 l0 3.3 4.3 -5.3 c16.7 -20.6 57.6 -18.5 72.4 3.6 6.5 9.6 6.7 10.7 7.1 57.4 l0.3 42.2 -9.5 0 -9.6 0 0 -38.2 c0 -45.5 -0.3 -47.2 -8.4 -55.3 -6 -5.9 -10.3 -7.5 -20.4 -7.5 -15.7 0 -27.1 8.2 -32.7 23.5 -1.6 4.4 -1.9 9.2 -2.3 41.3 l-0.4 36.2 -8.9 0 -8.9 0 0 -57.5z"/>
  <path d="M2622.5 641.6 c-5 -2.3 -7.7 -6 -8.2 -11.3 -0.8 -9.5 5.5 -15.8 15 -15 16.4 1.4 16.5 25 0.2 27.2 -2.4 0.3 -5.2 0 -7 -0.9z"/>
 </g>
 <g fill="#07a0b4">
  <path d="M733.8 882.5 c-24.6 -4 -41 -13.4 -63.8 -36.5 -15.9 -16.1 -20.6 -20.2 -53.2 -46.8 -34 -27.8 -35 -28.8 -38.3 -39.6 -3.2 -10.1 -3.1 -17.6 0.3 -24.2 2.1 -4 9.9 -12 16.4 -16.7 3.4 -2.5 3.7 -3.1 4.3 -9.4 2.7 -28.5 10.7 -55.5 21.6 -73.2 4 -6.5 5.5 -10.1 6.6 -15.9 2.7 -14.2 10 -26.6 18.8 -31.7 6.7 -4 10.1 -4.6 23.1 -4.5 l12 0 12.4 -6 c7.5 -3.7 14.3 -7.9 17.7 -10.9 2.9 -2.6 7.9 -6.1 11.1 -7.7 5 -2.5 6.8 -2.9 14.2 -2.9 7.4 0 9.4 0.4 15 3.1 3.6 1.7 9.1 5.2 12.2 7.7 3.2 2.6 6.6 4.7 7.5 4.7 1 0 4.9 1.4 8.8 3 8.2 3.5 13.4 3.8 20.5 1 2.8 -1.1 6.8 -2 8.9 -2 8.9 0 22.8 6.3 29.5 13.3 6 6.4 16.6 24.1 20.7 34.7 5.1 13 6.7 16.1 12.8 25.3 9.4 14.1 15.6 34.8 19.5 65.3 l2.3 17.8 3.4 2.5 c6.5 4.8 14.4 13.6 17.6 19.6 2.3 4.5 4.3 11.7 8.2 29.5 2.8 12.9 6.5 27.6 8.3 32.5 4.2 11.8 4.6 22.5 0.9 29.8 -3.6 7.4 -11.4 15.2 -18.4 18.6 -6.9 3.3 -28.9 7.6 -66.3 13 -48.8 7.1 -95.5 9.8 -114.6 6.6z m23.2 -66.7 c0 -1.8 -0.7 -9.1 -1.5 -16.3 -2 -17.5 -2 -37.6 0 -44.3 1.9 -6.4 6.3 -11.6 12.4 -14.7 9.2 -4.6 13.3 -10.6 15.2 -22.5 1.9 -11.3 0.6 -19.8 -10.3 -65.5 -10.4 -44.2 -29.9 -74.5 -51.7 -80.9 l-5.4 -1.6 -3.7 3 c-2 1.6 -9 5.5 -15.4 8.6 -9.7 4.8 -12.6 5.8 -17.1 5.8 -3 0.1 -5.5 0.1 -5.5 0.1 0 0 3.3 3.4 7.3 7.5 15.5 15.9 24.1 40.7 24.1 69.5 0.1 12.3 -0.1 13.3 -2.9 19 -4.9 10.1 -16.5 20 -17.9 15.3 -16 -55 -31.9 -84.8 -45.1 -84.8 -3.9 0 -6.5 3.3 -6.5 8.2 0 3.2 -1.2 6.4 -5.4 13.7 -9.1 16.2 -15.8 34.2 -19.1 52.1 -2 10.8 -3 27.9 -2.1 35.4 l0.8 5.8 5.9 2.6 c7.6 3.3 8.1 4.9 7.3 24 l-0.7 14.4 6 5.6 c3.3 3.1 9.3 7.6 13.5 10 8 4.6 22.6 10.8 27.5 11.8 2.9 0.6 3 0.4 3.6 -3.3 0.4 -2.1 0.7 -5.5 0.7 -7.6 0 -7.4 4.6 -12.7 11 -12.7 1.9 0.1 9.1 1.5 16 3.3 16.5 4.2 16.4 4 15.4 25.7 l-0.6 15.5 2 -1.9 c2.1 -1.8 2.5 -1.8 19.4 0.2 24.3 2.8 22.8 2.8 22.8 -1z m100.5 -5.8 c2.9 -1.6 7.2 -4.7 9.6 -6.9 4.9 -4.4 4.7 -2.8 3.9 -26.6 -0.5 -12.5 0.7 -15.2 9 -20.3 8.1 -5 8.5 -6.4 8.4 -25.2 -0.3 -29.8 -7.7 -64.1 -17 -78.5 l-2.5 -4 0.5 3.3 c0.3 1.8 1.1 6.2 1.8 9.7 0.8 4.8 0.9 6.8 0.1 7.6 -1.7 1.7 -7.2 -2.1 -15 -10.5 -6.7 -7.3 -9.1 -11.1 -34.7 -56.9 -3.4 -6 -8.2 -13.1 -10.7 -15.9 l-4.7 -5 -9.4 0.7 c-8.7 0.7 -9.8 0.5 -15.6 -1.9 -3.4 -1.4 -6.4 -2.6 -6.6 -2.6 -0.3 0 2 3.5 5.1 7.8 14.9 20.7 24.9 48.7 37.2 104.2 5.8 26 6.6 28.8 9.3 35.3 1.9 4.4 2.8 5.2 9.8 8.7 5.5 2.7 8.4 4.9 9.9 7.3 3 4.9 5.1 16.1 6.1 33.1 0.8 13.9 0.8 17.9 -0.5 33.9 -0.3 3.1 -0.2 5.7 0.1 5.7 0.4 0 3 -1.3 5.9 -3z"/>
 </g>
</svg>