<?xml version="1.0" encoding="UTF-8"?><svg id="Layer_1" xmlns="http://www.w3.org/2000/svg" xmlns:xlink="http://www.w3.org/1999/xlink" viewBox="0 0 207 48"><defs><style>.cls-1{fill:#07a0b4;}.cls-1,.cls-2,.cls-3,.cls-4{stroke-width:0px;}.cls-2{fill:none;}.cls-3,.cls-4{fill:#fff;}.cls-4{fill-rule:evenodd;}.cls-5{clip-path:url(#clippath);}</style><clipPath id="clippath"><rect class="cls-2" x="16" y="11.5" width="24" height="24"/></clipPath></defs><rect class="cls-1" x="0" width="207" height="48" rx="12" ry="12"/><g class="cls-5"><path class="cls-4" d="m27.75,12.45c2.9.01,5.7,1.15,7.8,3.16,2.15,2.06,3.38,4.82,3.49,7.79.11,2.9-.91,5.75-2.83,7.93-2.11,2.39-5.04,3.76-8.2,3.85-.11,0-.22,0-.33,0-1.71,0-3.39-.38-4.93-1.12l-5.95,1.32s-.09-.02-.1-.07c0,0,0-.02,0-.03l1-6.01c-.86-1.57-1.34-3.33-1.39-5.13-.09-3.03,1.01-5.92,3.1-8.13,2.16-2.29,5.11-3.56,8.27-3.56,0,0,.06,0,.06,0Zm-.06,1.97c-.09,0-.18,0-.27,0-5.18.15-9.27,4.48-9.12,9.66.05,1.58.49,3.13,1.29,4.49l.17.29-.74,4.08,4.04-.95.31.16c1.33.69,2.82,1.06,4.33,1.06.09,0,.18,0,.27,0,5.18-.15,9.27-4.48,9.12-9.66-.15-5.09-4.33-9.12-9.38-9.12Zm-3.93,3.9c.19,0,.38.01.55.02.2.01.43.03.63.51.24.57.75,2,.81,2.15s.11.31,0,.5c-.1.19-.15.3-.3.47-.15.16-.31.36-.44.49-.15.14-.3.29-.14.58.16.29.7,1.24,1.53,2.02,1.06,1.01,1.91,1.34,2.25,1.49.12.06.22.08.31.08.12,0,.22-.05.31-.14.18-.18.71-.8.94-1.09.12-.15.22-.2.34-.2.09,0,.19.03.31.08.26.1,1.64.84,1.92.99.28.15.47.23.54.35.07.12.05.69-.21,1.35-.26.66-1.44,1.27-1.97,1.3-.15,0-.3.03-.5.03-.48,0-1.22-.13-2.9-.85-2.86-1.23-4.6-4.26-4.74-4.46-.14-.19-1.12-1.58-1.07-2.99.04-1.4.8-2.07,1.07-2.35.26-.27.56-.33.75-.33,0,0,.02,0,.02,0Z"/></g><path class="cls-3" d="m56.8,22.42h2.43c-.07-.66-.26-1.25-.54-1.76-.29-.51-.66-.94-1.1-1.28-.44-.35-.94-.62-1.5-.8-.55-.18-1.15-.27-1.78-.27-.87,0-1.66.15-2.37.46-.69.31-1.28.74-1.76,1.28s-.85,1.18-1.1,1.92c-.26.73-.38,1.51-.38,2.37s.13,1.61.38,2.34c.26.71.62,1.34,1.1,1.87s1.07.95,1.76,1.26c.7.3,1.49.45,2.37.45.7,0,1.35-.11,1.94-.32.59-.21,1.1-.52,1.54-.93.44-.41.79-.9,1.06-1.47.27-.58.43-1.22.5-1.94h-2.43c-.1.77-.36,1.39-.8,1.86-.43.47-1.02.7-1.79.7-.57,0-1.05-.11-1.44-.32-.39-.22-.71-.52-.96-.88-.25-.36-.43-.77-.54-1.22-.11-.46-.16-.93-.16-1.41,0-.5.05-.99.16-1.46.12-.47.3-.89.54-1.25.25-.37.57-.67.96-.88.39-.22.87-.34,1.44-.34.31,0,.6.05.88.16.29.1.54.23.77.42.22.18.41.39.56.64.15.23.25.5.29.78Zm4-3.84v11.42h2.27v-4.34c0-.84.14-1.45.42-1.81.28-.37.73-.56,1.34-.56.54,0,.92.17,1.14.51.21.33.32.84.32,1.52v4.67h2.27v-5.09c0-.51-.05-.98-.14-1.39-.09-.43-.24-.78-.46-1.07-.22-.3-.53-.53-.93-.69-.38-.17-.88-.26-1.49-.26-.43,0-.86.11-1.31.34-.45.21-.82.56-1.1,1.04h-.05v-4.3h-2.27Zm9.39,5.7c.03-.53.17-.98.4-1.33.23-.35.54-.64.9-.85.36-.21.77-.36,1.22-.45.45-.1.91-.14,1.38-.14.42,0,.84.03,1.26.1.43.05.82.17,1.17.34s.64.41.86.72c.22.3.34.7.34,1.2v4.3c0,.37.02.73.06,1.07.04.34.12.6.22.77h-2.3c-.04-.13-.08-.25-.11-.38-.02-.14-.04-.28-.05-.42-.36.37-.79.63-1.28.78-.49.15-.99.22-1.5.22-.39,0-.76-.05-1.1-.14-.34-.1-.64-.25-.9-.45-.26-.2-.46-.46-.61-.77-.14-.31-.21-.68-.21-1.1,0-.47.08-.85.24-1.15.17-.31.38-.55.64-.74.27-.18.57-.31.9-.4.34-.09.68-.17,1.02-.22.34-.05.68-.1,1.01-.13.33-.03.62-.08.88-.14s.46-.15.61-.27c.15-.13.22-.31.21-.54,0-.25-.04-.44-.13-.58-.07-.15-.18-.26-.32-.34-.13-.09-.28-.14-.46-.16-.17-.03-.36-.05-.56-.05-.45,0-.8.1-1.06.29s-.41.51-.45.96h-2.27Zm5.25,1.68c-.1.09-.22.15-.37.21-.15.05-.31.08-.46.11-.17.03-.34.06-.51.08-.18.02-.36.05-.54.08-.17.03-.34.08-.51.13-.16.05-.3.13-.43.22-.12.09-.21.2-.29.34-.07.14-.11.31-.11.53s.04.37.11.51c.07.14.18.25.3.34.13.07.28.13.45.16.17.03.35.05.53.05.45,0,.79-.07,1.04-.22.25-.15.43-.33.54-.53.12-.21.19-.43.21-.64.03-.21.05-.38.05-.51v-.85Zm6.92-4.22v-2.48h-2.27v2.48h-1.38v1.52h1.38v4.88c0,.42.07.75.21,1.01.14.26.33.45.56.59.25.14.52.23.83.27.32.05.66.08,1.01.08.22,0,.45,0,.69-.02.23-.01.45-.03.64-.06v-1.76c-.11.02-.22.04-.34.05-.12.01-.24.02-.37.02-.38,0-.64-.06-.77-.19s-.19-.38-.19-.77v-4.1h1.66v-1.52h-1.66Zm9.21,4.14c0-.33.03-.66.1-.98s.17-.6.32-.85c.16-.25.37-.44.62-.59.26-.16.58-.24.96-.24s.7.08.96.24c.27.15.47.35.62.59.16.25.27.53.34.85.06.32.1.65.1.98s-.03.66-.1.98c-.06.31-.18.59-.34.85-.15.25-.36.44-.62.59-.26.15-.58.22-.96.22s-.7-.07-.96-.22c-.25-.15-.47-.35-.62-.59-.15-.26-.26-.54-.32-.85-.06-.32-.1-.65-.1-.98Zm-2.27,0c0,.66.1,1.26.3,1.79s.49.99.86,1.38c.37.37.82.66,1.34.86s1.11.3,1.76.3,1.24-.1,1.76-.3c.53-.2.99-.49,1.36-.86.37-.38.66-.84.86-1.38.2-.53.3-1.13.3-1.79s-.1-1.26-.3-1.79c-.2-.54-.49-1-.86-1.38-.37-.38-.83-.68-1.36-.88-.52-.21-1.11-.32-1.76-.32s-1.24.11-1.76.32c-.52.2-.97.5-1.34.88-.37.37-.66.83-.86,1.38-.2.53-.3,1.13-.3,1.79Zm10.04-4.14v8.27h2.27v-4.34c0-.84.14-1.45.42-1.81.28-.37.72-.56,1.34-.56.54,0,.92.17,1.14.51.21.33.32.84.32,1.52v4.67h2.27v-5.09c0-.51-.05-.98-.14-1.39-.09-.43-.24-.78-.46-1.07-.22-.3-.53-.53-.93-.69-.38-.17-.88-.26-1.49-.26-.48,0-.95.11-1.41.34-.46.21-.83.56-1.12,1.04h-.05v-1.15h-2.16Zm25.06,8.27l3.07-11.42h-2.46l-1.87,7.87h-.03l-1.95-7.87h-2.35l-1.98,7.78h-.03l-1.81-7.78h-2.51l3.02,11.42h2.54l1.9-7.78h.03l1.94,7.78h2.5Zm3.99-11.42v11.42h2.27v-4.34c0-.84.14-1.45.42-1.81.28-.37.73-.56,1.34-.56.54,0,.92.17,1.14.51.21.33.32.84.32,1.52v4.67h2.27v-5.09c0-.51-.05-.98-.14-1.39-.09-.43-.24-.78-.46-1.07-.22-.3-.53-.53-.93-.69-.38-.17-.88-.26-1.49-.26-.43,0-.86.11-1.31.34-.45.21-.82.56-1.1,1.04h-.05v-4.3h-2.27Zm9.39,5.7c.03-.53.16-.98.4-1.33s.53-.63.9-.85c.36-.21.77-.36,1.22-.45.46-.1.92-.14,1.38-.14.42,0,.84.03,1.26.1.43.05.82.17,1.17.34s.64.41.86.72c.22.3.34.7.34,1.2v4.3c0,.37.02.73.06,1.07.04.34.12.6.22.77h-2.3c-.04-.13-.08-.26-.11-.38-.02-.14-.04-.28-.05-.42-.36.37-.79.63-1.28.78s-.99.22-1.5.22c-.4,0-.76-.05-1.1-.14-.34-.1-.64-.25-.9-.45s-.46-.46-.61-.77c-.14-.31-.21-.68-.21-1.1,0-.47.08-.85.24-1.15.17-.31.38-.55.64-.74.27-.18.57-.31.9-.4.34-.1.68-.17,1.02-.22s.68-.1,1.01-.13.62-.08.88-.14c.26-.06.46-.15.61-.27.15-.13.22-.31.21-.54,0-.25-.04-.44-.13-.58-.07-.15-.18-.26-.32-.34-.13-.09-.28-.14-.46-.16-.17-.03-.36-.05-.56-.05-.45,0-.8.1-1.06.29s-.4.51-.45.96h-2.27,0Zm5.25,1.68c-.1.09-.22.15-.37.21-.14.04-.29.08-.46.11-.16.03-.33.06-.51.08s-.36.05-.54.08c-.17.03-.34.07-.51.13-.16.05-.3.13-.43.22-.12.09-.21.2-.29.34s-.11.31-.11.53.04.37.11.51c.07.14.18.25.3.34.13.07.28.13.45.16s.35.05.53.05c.45,0,.79-.07,1.04-.22s.43-.33.54-.53c.12-.21.19-.43.21-.64.03-.21.05-.38.05-.51v-.85Zm6.92-4.22v-2.48h-2.27v2.48h-1.38v1.52h1.38v4.88c0,.42.07.75.21,1.01.14.26.32.45.56.59.24.14.52.23.83.27.32.05.66.08,1.01.08.22,0,.45,0,.69-.02.23-.01.45-.03.64-.06v-1.76c-.11.02-.22.04-.34.05-.12.01-.24.02-.37.02-.38,0-.64-.06-.77-.19s-.19-.38-.19-.77v-4.1h1.66v-1.52h-1.66,0Zm4.51,5.58h-2.16c.02.55.14,1.02.37,1.39.23.36.53.66.88.88.36.22.77.38,1.23.48.46.1.93.14,1.41.14s.93-.05,1.38-.14c.46-.09.86-.24,1.22-.46s.63-.52.85-.88c.22-.37.34-.83.34-1.38,0-.38-.07-.7-.22-.96-.15-.27-.35-.49-.59-.66-.25-.18-.53-.33-.85-.43-.31-.11-.64-.2-.96-.27-.31-.07-.63-.14-.94-.21-.31-.06-.59-.13-.83-.21-.24-.09-.43-.19-.58-.32-.15-.13-.22-.29-.22-.5,0-.17.04-.3.13-.4.09-.11.19-.19.3-.24.13-.05.27-.09.42-.1.15-.02.29-.03.42-.03.4,0,.76.08,1.06.24.3.15.46.44.5.88h2.16c-.04-.51-.18-.93-.4-1.26-.21-.34-.49-.61-.82-.82-.33-.2-.71-.35-1.14-.43-.42-.09-.85-.13-1.3-.13s-.89.04-1.31.13c-.43.07-.81.21-1.15.42-.34.19-.62.46-.83.8-.2.34-.3.78-.3,1.31,0,.36.07.67.22.93.15.25.35.45.59.62.24.16.52.29.83.4.32.1.65.18.98.26.81.17,1.44.34,1.89.51.46.17.69.43.69.77,0,.2-.05.37-.14.51-.1.13-.22.23-.37.32-.14.07-.3.13-.48.18-.17.03-.34.05-.5.05-.22,0-.44-.03-.66-.08-.2-.05-.38-.13-.54-.24-.16-.12-.3-.26-.4-.43-.1-.18-.14-.39-.14-.64h0Zm9.95-1.73l1.49-4.19h.03l1.44,4.19h-2.96Zm.24-7.01l-4.32,11.42h2.53l.9-2.54h4.27l.86,2.54h2.61l-4.27-11.42h-2.58,0Zm11.77,9.94c-.36,0-.67-.07-.93-.22s-.46-.34-.62-.58c-.15-.25-.26-.53-.34-.85-.06-.32-.1-.65-.1-.98,0-.34.03-.67.1-.99s.17-.6.32-.85c.16-.25.36-.44.61-.59.26-.16.57-.24.94-.24s.67.08.91.24c.26.15.46.35.62.61.16.25.27.53.34.85.07.32.11.65.11.98s-.03.66-.1.98-.18.6-.34.85c-.15.23-.35.43-.61.58-.24.15-.55.22-.93.22h0Zm-4.18-6.78v11.17h2.27v-3.92h.03c.28.41.63.71,1.06.93.44.2.91.3,1.42.3.61,0,1.14-.12,1.58-.35.46-.23.84-.55,1.14-.94.31-.39.54-.85.69-1.36.15-.51.22-1.05.22-1.6,0-.59-.07-1.15-.22-1.68-.15-.54-.38-1.02-.69-1.42-.31-.41-.7-.73-1.17-.98-.47-.25-1.03-.37-1.68-.37-.51,0-.98.1-1.41.3-.43.2-.78.53-1.06.98h-.03v-1.06h-2.16Zm13.96,6.78c-.36,0-.67-.07-.93-.22s-.46-.34-.62-.58c-.15-.25-.26-.53-.34-.85-.06-.32-.1-.65-.1-.98,0-.34.03-.67.1-.99s.17-.6.32-.85c.16-.25.36-.44.61-.59.26-.16.57-.24.94-.24s.67.08.91.24c.26.15.46.35.62.61.16.25.27.53.34.85.07.32.11.65.11.98s-.03.66-.1.98-.18.6-.34.85c-.15.23-.35.43-.61.58-.25.15-.55.22-.93.22h0Zm-4.18-6.78v11.17h2.27v-3.92h.03c.28.41.63.71,1.06.93.44.2.91.3,1.42.3.61,0,1.14-.12,1.58-.35.46-.23.84-.55,1.14-.94.31-.39.54-.85.69-1.36.15-.51.22-1.05.22-1.6,0-.59-.07-1.15-.22-1.68-.15-.54-.38-1.02-.69-1.42-.31-.41-.7-.73-1.17-.98-.47-.25-1.03-.37-1.68-.37-.51,0-.98.1-1.41.3-.43.2-.78.53-1.06.98h-.03v-1.06h-2.16Z"/></svg>