<svg data-v-423bf9ae="" xmlns="http://www.w3.org/2000/svg" viewBox="0 0 503.5037188275801 60" class="font"><!----><!----><!----><g data-v-423bf9ae="" id="cc1105cb-27c4-40b7-987b-4a7182815b45" fill="white" transform="matrix(4.5112778073122,0,0,4.5112778073122,-3.022559829364212,-12.315788976845255)"><path d="M4.48 3.64L4.48 3.64Q6.96 3.64 8.05 5.60L8.05 5.60L7.08 6.38L7.08 6.38Q6.66 5.46 6.08 5.07L6.08 5.07L6.08 5.07Q5.50 4.69 4.49 4.69L4.49 4.69L4.49 4.69Q3.43 4.69 2.82 5.13L2.82 5.13L2.82 5.13Q2.21 5.57 2.21 6.26L2.21 6.26L2.21 6.26Q2.21 6.71 2.45 7.00L2.45 7.00L2.45 7.00Q2.69 7.29 3.24 7.51L3.24 7.51L3.24 7.51Q3.79 7.73 4.77 7.90L4.77 7.90L4.77 7.90Q6.61 8.20 7.37 8.82L7.37 8.82L7.37 8.82Q8.13 9.44 8.13 10.53L8.13 10.53L8.13 10.53Q8.13 11.31 7.69 11.91L7.69 11.91L7.69 11.91Q7.25 12.50 6.44 12.83L6.44 12.83L6.44 12.83Q5.63 13.16 4.56 13.16L4.56 13.16L4.56 13.16Q3.16 13.16 2.18 12.61L2.18 12.61L2.18 12.61Q1.19 12.07 0.67 11.16L0.67 11.16L1.64 10.37L1.64 10.37Q2.02 11.20 2.75 11.65L2.75 11.65L2.75 11.65Q3.49 12.11 4.59 12.11L4.59 12.11L4.59 12.11Q5.68 12.11 6.33 11.71L6.33 11.71L6.33 11.71Q6.97 11.31 6.97 10.58L6.97 10.58L6.97 10.58Q6.97 9.97 6.41 9.60L6.41 9.60L6.41 9.60Q5.85 9.24 4.42 8.99L4.42 8.99L4.42 8.99Q2.58 8.67 1.81 8.06L1.81 8.06L1.81 8.06Q1.04 7.46 1.04 6.38L1.04 6.38L1.04 6.38Q1.04 5.64 1.46 5.01L1.46 5.01L1.46 5.01Q1.88 4.38 2.66 4.01L2.66 4.01L2.66 4.01Q3.44 3.64 4.48 3.64L4.48 3.64ZM10.84 11.34L10.84 11.34Q11.24 11.34 11.49 11.59L11.49 11.59L11.49 11.59Q11.75 11.84 11.75 12.25L11.75 12.25L11.75 12.25Q11.75 12.66 11.49 12.91L11.49 12.91L11.49 12.91Q11.24 13.16 10.84 13.16L10.84 13.16L10.84 13.16Q10.43 13.16 10.18 12.91L10.18 12.91L10.18 12.91Q9.93 12.66 9.93 12.25L9.93 12.25L9.93 12.25Q9.93 11.84 10.18 11.59L10.18 11.59L10.18 11.59Q10.43 11.34 10.84 11.34L10.84 11.34ZM26.24 3.78L26.24 13.02L24.85 13.02L20.99 6.83L20.01 5.01L19.99 5.01L20.05 6.50L20.05 13.02L18.98 13.02L18.98 3.78L20.37 3.78L24.22 9.94L25.21 11.79L25.23 11.79L25.17 10.30L25.17 3.78L26.24 3.78ZM29.61 11.34L29.61 11.34Q30.02 11.34 30.27 11.59L30.27 11.59L30.27 11.59Q30.52 11.84 30.52 12.25L30.52 12.25L30.52 12.25Q30.52 12.66 30.27 12.91L30.27 12.91L30.27 12.91Q30.02 13.16 29.61 13.16L29.61 13.16L29.61 13.16Q29.20 13.16 28.95 12.91L28.95 12.91L28.95 12.91Q28.70 12.66 28.70 12.25L28.70 12.25L28.70 12.25Q28.70 11.84 28.95 11.59L28.95 11.59L28.95 11.59Q29.20 11.34 29.61 11.34L29.61 11.34ZM40.73 3.64L40.73 3.64Q43.20 3.64 44.30 5.60L44.30 5.60L43.33 6.38L43.33 6.38Q42.91 5.46 42.33 5.07L42.33 5.07L42.33 5.07Q41.75 4.69 40.74 4.69L40.74 4.69L40.74 4.69Q39.68 4.69 39.07 5.13L39.07 5.13L39.07 5.13Q38.46 5.57 38.46 6.26L38.46 6.26L38.46 6.26Q38.46 6.71 38.70 7.00L38.70 7.00L38.70 7.00Q38.93 7.29 39.49 7.51L39.49 7.51L39.49 7.51Q40.04 7.73 41.02 7.90L41.02 7.90L41.02 7.90Q42.85 8.20 43.62 8.82L43.62 8.82L43.62 8.82Q44.38 9.44 44.38 10.53L44.38 10.53L44.38 10.53Q44.38 11.31 43.94 11.91L43.94 11.91L43.94 11.91Q43.50 12.50 42.69 12.83L42.69 12.83L42.69 12.83Q41.87 13.16 40.81 13.16L40.81 13.16L40.81 13.16Q39.41 13.16 38.42 12.61L38.42 12.61L38.42 12.61Q37.44 12.07 36.92 11.16L36.92 11.16L37.88 10.37L37.88 10.37Q38.26 11.20 39.00 11.65L39.00 11.65L39.00 11.65Q39.73 12.11 40.84 12.11L40.84 12.11L40.84 12.11Q41.93 12.11 42.57 11.71L42.57 11.71L42.57 11.71Q43.22 11.31 43.22 10.58L43.22 10.58L43.22 10.58Q43.22 9.97 42.66 9.60L42.66 9.60L42.66 9.60Q42.10 9.24 40.67 8.99L40.67 8.99L40.67 8.99Q38.82 8.67 38.05 8.06L38.05 8.06L38.05 8.06Q37.28 7.46 37.28 6.38L37.28 6.38L37.28 6.38Q37.28 5.64 37.70 5.01L37.70 5.01L37.70 5.01Q38.12 4.38 38.91 4.01L38.91 4.01L38.91 4.01Q39.69 3.64 40.73 3.64L40.73 3.64ZM49.48 5.88L49.48 5.88Q50.53 5.88 51.25 6.36L51.25 6.36L51.25 6.36Q51.97 6.85 52.37 7.74L52.37 7.74L51.31 8.25L51.31 8.25Q50.86 6.86 49.45 6.86L49.45 6.86L49.45 6.86Q48.40 6.86 47.80 7.57L47.80 7.57L47.80 7.57Q47.21 8.27 47.21 9.52L47.21 9.52L47.21 9.52Q47.21 10.77 47.80 11.47L47.80 11.47L47.80 11.47Q48.40 12.18 49.45 12.18L49.45 12.18L49.45 12.18Q50.26 12.18 50.76 11.81L50.76 11.81L50.76 11.81Q51.25 11.44 51.41 10.74L51.41 10.74L52.44 11.10L52.44 11.10Q52.08 12.08 51.32 12.62L51.32 12.62L51.32 12.62Q50.57 13.16 49.48 13.16L49.48 13.16L49.48 13.16Q47.89 13.16 46.99 12.19L46.99 12.19L46.99 12.19Q46.09 11.23 46.09 9.52L46.09 9.52L46.09 9.52Q46.09 7.81 46.99 6.85L46.99 6.85L46.99 6.85Q47.89 5.88 49.48 5.88L49.48 5.88ZM60.16 12.21L60.16 12.21Q60.44 12.21 60.72 12.14L60.72 12.14L60.65 13.02L60.65 13.02Q60.26 13.16 59.81 13.16L59.81 13.16L59.81 13.16Q59.26 13.16 58.95 12.92L58.95 12.92L58.95 12.92Q58.63 12.68 58.55 12.12L58.55 12.12L58.55 12.12Q58.23 12.61 57.60 12.89L57.60 12.89L57.60 12.89Q56.98 13.16 56.29 13.16L56.29 13.16L56.29 13.16Q55.26 13.16 54.59 12.68L54.59 12.68L54.59 12.68Q53.91 12.19 53.91 11.28L53.91 11.28L53.91 11.28Q53.91 10.49 54.61 9.90L54.61 9.90L54.61 9.90Q55.31 9.32 56.64 9.10L56.64 9.10L58.51 8.79L58.51 8.40L58.51 8.40Q58.51 7.70 58.07 7.28L58.07 7.28L58.07 7.28Q57.64 6.86 56.87 6.86L56.87 6.86L56.87 6.86Q56.17 6.86 55.66 7.20L55.66 7.20L55.66 7.20Q55.15 7.53 54.87 8.19L54.87 8.19L54.04 7.59L54.04 7.59Q54.32 6.80 55.08 6.34L55.08 6.34L55.08 6.34Q55.85 5.88 56.87 5.88L56.87 5.88L56.87 5.88Q58.11 5.88 58.87 6.48L58.87 6.48L58.87 6.48Q59.63 7.08 59.63 8.26L59.63 8.26L59.63 11.70L59.63 11.70Q59.63 11.96 59.75 12.08L59.75 12.08L59.75 12.08Q59.88 12.21 60.16 12.21L60.16 12.21ZM56.35 12.18L56.35 12.18Q57.23 12.18 57.87 11.76L57.87 11.76L57.87 11.76Q58.51 11.34 58.51 10.67L58.51 10.67L58.51 9.70L56.94 10.00L56.94 10.00Q56 10.16 55.54 10.48L55.54 10.48L55.54 10.48Q55.08 10.79 55.08 11.28L55.08 11.28L55.08 11.28Q55.08 11.72 55.41 11.95L55.41 11.95L55.41 11.95Q55.75 12.18 56.35 12.18L56.35 12.18ZM63.94 4.96L63.94 6.02L66.28 6.02L66.28 6.99L63.94 6.99L63.94 13.02L62.82 13.02L62.82 6.99L61.42 6.99L61.42 6.02L62.82 6.02L62.82 4.84L62.82 4.84Q62.82 3.88 63.41 3.30L63.41 3.30L63.41 3.30Q63.99 2.73 65.11 2.73L65.11 2.73L65.11 2.73Q65.49 2.73 65.81 2.81L65.81 2.81L65.81 2.81Q66.12 2.90 66.30 3.05L66.30 3.05L66.01 3.96L66.01 3.96Q65.67 3.75 65.21 3.75L65.21 3.75L65.21 3.75Q63.94 3.75 63.94 4.96L63.94 4.96ZM68.46 4.96L68.46 6.02L70.80 6.02L70.80 6.99L68.46 6.99L68.46 13.02L67.34 13.02L67.34 6.99L65.94 6.99L65.94 6.02L67.34 6.02L67.34 4.84L67.34 4.84Q67.34 3.88 67.93 3.30L67.93 3.30L67.93 3.30Q68.52 2.73 69.64 2.73L69.64 2.73L69.64 2.73Q70.01 2.73 70.33 2.81L70.33 2.81L70.33 2.81Q70.64 2.90 70.83 3.05L70.83 3.05L70.53 3.96L70.53 3.96Q70.20 3.75 69.73 3.75L69.73 3.75L69.73 3.75Q68.46 3.75 68.46 4.96L68.46 4.96ZM75.05 5.88L75.05 5.88Q76.64 5.88 77.54 6.85L77.54 6.85L77.54 6.85Q78.44 7.81 78.44 9.52L78.44 9.52L78.44 9.52Q78.44 11.23 77.54 12.19L77.54 12.19L77.54 12.19Q76.64 13.16 75.05 13.16L75.05 13.16L75.05 13.16Q73.47 13.16 72.57 12.19L72.57 12.19L72.57 12.19Q71.67 11.23 71.67 9.52L71.67 9.52L71.67 9.52Q71.67 7.81 72.57 6.85L72.57 6.85L72.57 6.85Q73.47 5.88 75.05 5.88L75.05 5.88ZM75.05 6.85L75.05 6.85Q73.99 6.85 73.39 7.56L73.39 7.56L73.39 7.56Q72.79 8.27 72.79 9.52L72.79 9.52L72.79 9.52Q72.79 10.77 73.39 11.48L73.39 11.48L73.39 11.48Q73.99 12.19 75.05 12.19L75.05 12.19L75.05 12.19Q76.12 12.19 76.72 11.48L76.72 11.48L76.72 11.48Q77.32 10.77 77.32 9.52L77.32 9.52L77.32 9.52Q77.32 8.27 76.72 7.56L76.72 7.56L76.72 7.56Q76.12 6.85 75.05 6.85L75.05 6.85ZM81.68 2.80L81.68 11.14L81.68 11.14Q81.68 11.68 81.84 11.88L81.84 11.88L81.84 11.88Q82.00 12.08 82.43 12.08L82.43 12.08L82.43 12.08Q82.73 12.08 82.94 12.04L82.94 12.04L82.94 12.04Q83.16 12.00 83.45 11.89L83.45 11.89L83.27 12.96L83.27 12.96Q82.81 13.16 82.24 13.16L82.24 13.16L82.24 13.16Q81.38 13.16 80.97 12.70L80.97 12.70L80.97 12.70Q80.56 12.24 80.56 11.28L80.56 11.28L80.56 2.80L81.68 2.80ZM89.99 2.80L91.11 2.80L91.11 13.02L90.13 13.02L90.06 11.80L90.06 11.80Q89.75 12.42 89.12 12.79L89.12 12.79L89.12 12.79Q88.48 13.16 87.67 13.16L87.67 13.16L87.67 13.16Q86.20 13.16 85.34 12.19L85.34 12.19L85.34 12.19Q84.48 11.21 84.48 9.52L84.48 9.52L84.48 9.52Q84.48 7.83 85.34 6.85L85.34 6.85L85.34 6.85Q86.20 5.88 87.67 5.88L87.67 5.88L87.67 5.88Q88.44 5.88 89.05 6.22L89.05 6.22L89.05 6.22Q89.66 6.55 89.99 7.11L89.99 7.11L89.99 2.80ZM87.79 12.18L87.79 12.18Q88.80 12.18 89.40 11.48L89.40 11.48L89.40 11.48Q89.99 10.78 89.99 9.60L89.99 9.60L89.99 9.44L89.99 9.44Q89.99 8.26 89.40 7.56L89.40 7.56L89.40 7.56Q88.80 6.86 87.79 6.86L87.79 6.86L87.79 6.86Q86.77 6.86 86.18 7.58L86.18 7.58L86.18 7.58Q85.60 8.30 85.60 9.52L85.60 9.52L85.60 9.52Q85.60 10.74 86.18 11.46L86.18 11.46L86.18 11.46Q86.77 12.18 87.79 12.18L87.79 12.18ZM94.28 4.68L94.28 4.68Q93.90 4.68 93.67 4.44L93.67 4.44L93.67 4.44Q93.44 4.21 93.44 3.84L93.44 3.84L93.44 3.84Q93.44 3.46 93.67 3.23L93.67 3.23L93.67 3.23Q93.90 3.00 94.28 3.00L94.28 3.00L94.28 3.00Q94.65 3.00 94.88 3.23L94.88 3.23L94.88 3.23Q95.12 3.46 95.12 3.84L95.12 3.84L95.12 3.84Q95.12 4.21 94.88 4.44L94.88 4.44L94.88 4.44Q94.65 4.68 94.28 4.68L94.28 4.68ZM94.84 6.02L94.84 13.02L93.72 13.02L93.72 6.02L94.84 6.02ZM100.84 5.88L100.84 5.88Q102.03 5.88 102.80 6.57L102.80 6.57L102.80 6.57Q103.57 7.25 103.57 8.54L103.57 8.54L103.57 13.02L102.45 13.02L102.45 8.93L102.45 8.93Q102.45 7.84 101.98 7.35L101.98 7.35L101.98 7.35Q101.51 6.86 100.73 6.86L100.73 6.86L100.73 6.86Q100.17 6.86 99.68 7.10L99.68 7.10L99.68 7.10Q99.19 7.35 98.87 7.90L98.87 7.90L98.87 7.90Q98.56 8.46 98.56 9.30L98.56 9.30L98.56 13.02L97.44 13.02L97.44 6.02L98.42 6.02L98.49 7.11L98.49 7.11Q98.84 6.48 99.46 6.18L99.46 6.18L99.46 6.18Q100.07 5.88 100.84 5.88L100.84 5.88ZM110.01 12.12L110.01 12.12Q111.01 12.12 111.57 12.57L111.57 12.57L111.57 12.57Q112.13 13.02 112.13 13.79L112.13 13.79L112.13 13.79Q112.13 14.46 111.66 14.97L111.66 14.97L111.66 14.97Q111.20 15.48 110.41 15.76L110.41 15.76L110.41 15.76Q109.62 16.03 108.67 16.03L108.67 16.03L108.67 16.03Q107.07 16.03 106.26 15.52L106.26 15.52L106.26 15.52Q105.45 15.01 105.45 14.18L105.45 14.18L105.45 14.18Q105.45 13.71 105.78 13.34L105.78 13.34L105.78 13.34Q106.11 12.98 106.68 12.82L106.68 12.82L106.68 12.82Q106.25 12.61 105.99 12.29L105.99 12.29L105.99 12.29Q105.73 11.97 105.73 11.54L105.73 11.54L105.73 11.54Q105.73 11.02 106.01 10.67L106.01 10.67L106.01 10.67Q106.29 10.33 106.78 10.16L106.78 10.16L106.78 10.16Q106.27 9.86 106.01 9.36L106.01 9.36L106.01 9.36Q105.76 8.86 105.76 8.25L105.76 8.25L105.76 8.25Q105.76 7.56 106.12 7.02L106.12 7.02L106.12 7.02Q106.48 6.48 107.14 6.18L107.14 6.18L107.14 6.18Q107.80 5.88 108.63 5.88L108.63 5.88L108.63 5.88Q109.41 5.88 110.05 6.16L110.05 6.16L110.05 6.16Q110.45 4.73 112.03 4.73L112.03 4.73L112.28 5.71L112.28 5.71Q110.91 5.71 110.61 6.48L110.61 6.48L110.61 6.48Q111.03 6.80 111.26 7.25L111.26 7.25L111.26 7.25Q111.50 7.70 111.50 8.25L111.50 8.25L111.50 8.25Q111.50 8.93 111.13 9.47L111.13 9.47L111.13 9.47Q110.77 10.01 110.11 10.31L110.11 10.31L110.11 10.31Q109.45 10.61 108.63 10.61L108.63 10.61L108.63 10.61Q108.01 10.61 107.55 10.49L107.55 10.49L107.55 10.49Q107.13 10.58 106.95 10.79L106.95 10.79L106.95 10.79Q106.76 11.00 106.76 11.37L106.76 11.37L106.76 11.37Q106.76 11.73 107.02 11.93L107.02 11.93L107.02 11.93Q107.27 12.12 107.69 12.12L107.69 12.12L110.01 12.12ZM108.63 6.79L108.63 6.79Q107.90 6.79 107.41 7.20L107.41 7.20L107.41 7.20Q106.92 7.60 106.92 8.25L106.92 8.25L106.92 8.25Q106.92 8.89 107.41 9.30L107.41 9.30L107.41 9.30Q107.90 9.70 108.63 9.70L108.63 9.70L108.63 9.70Q109.35 9.70 109.84 9.30L109.84 9.30L109.84 9.30Q110.33 8.89 110.33 8.25L110.33 8.25L110.33 8.25Q110.33 7.60 109.84 7.20L109.84 7.20L109.84 7.20Q109.35 6.79 108.63 6.79L108.63 6.79ZM108.79 15.09L108.79 15.09Q109.86 15.09 110.47 14.75L110.47 14.75L110.47 14.75Q111.09 14.41 111.09 13.92L111.09 13.92L111.09 13.92Q111.09 13.51 110.77 13.30L110.77 13.30L110.77 13.30Q110.46 13.09 109.70 13.09L109.70 13.09L107.83 13.09L107.83 13.09Q107.18 13.09 106.83 13.32L106.83 13.32L106.83 13.32Q106.48 13.55 106.48 13.96L106.48 13.96L106.48 13.96Q106.48 14.49 107.07 14.79L107.07 14.79L107.07 14.79Q107.66 15.09 108.79 15.09L108.79 15.09Z"></path></g><!----><!----></svg>